<svg width="450" height="150" xmlns="http://www.w3.org/2000/svg">
 <g>
  <title>Layer 1</title>
  <path id="svg_1" fill="#ffffff" d="m312.27133,48.66413l-14.71984,44.4133l-8.75577,0l-10.97643,-32.86584l-11.16677,32.86584l-8.81921,0l-14.71984,-44.4133l8.56542,0l11.03988,33.75411l11.48401,-33.75411l7.61371,0l11.23022,33.94445l11.35712,-33.94445l7.8675,0zm16.36082,10.15161c4.99145,0 8.7983,1.2055 11.42056,3.61651c2.6648,2.36847 3.9972,5.96407 3.9972,10.78609l0,19.85909l-7.48681,0l0,-4.12409c-0.97262,1.4802 -2.36847,2.62226 -4.18754,3.42617c-1.77653,0.76137 -3.93375,1.14206 -6.47165,1.14206c-2.5379,0 -4.75857,-0.42322 -6.662,-1.26895c-1.90343,-0.88827 -3.38363,-2.09377 -4.44133,-3.61651c-1.01516,-1.56528 -1.52274,-3.32018 -1.52274,-5.26615c0,-3.04548 1.12115,-5.4774 3.36272,-7.29647c2.28411,-1.86089 5.85881,-2.79169 10.72264,-2.79169l8.75577,0l0,-0.50758c0,-2.36847 -0.71883,-4.18754 -2.15722,-5.45649c-1.39585,-1.26895 -3.48962,-1.90343 -6.28131,-1.90343c-1.90343,0 -3.78522,0.29633 -5.64683,0.88827c-1.81835,0.59194 -3.36272,1.41676 -4.63167,2.47446l-3.10893,-5.77373c1.77653,-1.35331 3.91284,-2.3901 6.40821,-3.10893c2.49609,-0.71883 5.13925,-1.07861 7.93095,-1.07861l-0.00002,-0.00002zm-1.07861,28.93209c1.9885,0 3.74341,-0.44413 5.26615,-1.3324c1.56528,-0.9308 2.6648,-2.24157 3.29927,-3.93375l0,-3.93375l-8.18474,0c-4.56823,0 -6.85234,1.50183 -6.85234,4.50478c0,1.43839 0.57103,2.58044 1.71308,3.42617c1.14206,0.84573 2.72825,1.26895 4.75857,1.26895l0.00001,0zm47.99304,5.96407c-4.48315,0 -8.54379,-0.97262 -12.18193,-2.91859c-3.59488,-1.98778 -6.42911,-4.71603 -8.50197,-8.18474c-2.03032,-3.46871 -3.04548,-7.38083 -3.04548,-11.7378c0,-4.35697 1.03679,-8.26909 3.10893,-11.7378c2.07286,-3.46871 4.90709,-6.17532 8.50197,-8.12129c3.63814,-1.98778 7.69879,-2.98204 12.18193,-2.98204c3.63814,0 6.95832,0.63448 9.96127,1.90343c3.00367,1.26895 5.54157,3.10893 7.61371,5.51994l-5.3296,5.01236c-3.2142,-3.46871 -7.16958,-5.2027 -11.8647,-5.2027c-3.04548,0 -5.77373,0.67701 -8.18474,2.03032c-2.41101,1.31149 -4.29281,3.15147 -5.64683,5.51994c-1.35331,2.36847 -2.03032,5.0549 -2.03032,8.05784c0,3.00294 0.67701,5.68937 2.03032,8.05784c1.35403,2.36847 3.23583,4.23008 5.64683,5.58339c2.41101,1.31149 5.13925,1.96687 8.18474,1.96687c4.69512,0 8.6505,-1.75562 11.8647,-5.26615l5.3296,5.07581c-2.07214,2.41101 -4.63167,4.25099 -7.67716,5.51994c-3.00294,1.26895 -6.32313,1.90343 -9.96127,1.90343zm56.50439,-34.51548l-15.86189,36.60925c-1.4802,3.67996 -3.27837,6.2604 -5.39304,7.7406c-2.11468,1.52274 -4.67421,2.28411 -7.67716,2.28411c-1.69218,0 -3.36272,-0.2747 -5.01236,-0.82482c-1.64964,-0.55012 -3.00294,-1.31149 -4.06064,-2.28411l3.17238,-5.83718c0.76137,0.71883 1.64964,1.28986 2.6648,1.71308c1.0577,0.42322 2.11468,0.63448 3.17238,0.63448c1.39585,0 2.5379,-0.35978 3.42617,-1.07861c0.9308,-0.71883 1.77653,-1.92434 2.5379,-3.61651l0.57103,-1.3324l-14.78328,-34.0079l8.24818,0l10.65919,25.06179l10.72264,-25.06179l7.61371,0l-0.00001,0.00001z" stroke="null"/>
  <path id="svg_2" fill="#3CB371" d="m16,8l88.02918,134.90613l26.10147,-45.7147l29.82973,45.7147l23.80293,-41.68938l-11.22734,-16.12722l15.65353,-25.69663l15.65353,-25.69648l18.47118,0l14.67153,-25.69641l-55.93048,0l-50.92461,89.19143l-58.19967,-89.19143l-55.93098,0l0,-0.00001z" clip-rule="evenodd" fill-rule="evenodd" stroke="null"/>
 </g>

</svg>